<svg width="888" height="102" viewBox="0 0 888 102" fill="none" xmlns="http://www.w3.org/2000/svg">
<path fill-rule="evenodd" clip-rule="evenodd" d="M38 5H41C51 5 59 14 59 24V60V61C61 64 63 67 63 70C63 77 57 82 51 82C44 82 38 77 38 70C38 65 41 61 46 59V24C46 21 43 19 40 19H38V24C38 25 38 25 38 25H37L25 13L38 0V5ZM51 65C48 65 45 67 45 70C45 73 48 75 51 75C53 75 56 73 56 70C56 67 53 65 51 65ZM4 23C1 21 0 18 0 14C0 7 5 2 12 2C18 2 24 7 24 14C24 19 21 23 17 25V60C17 63 20 65 23 65H24V59C24 59 24 59 25 59L37 71L25 84H24V83V78H22C12 78 4 70 4 60V24V23ZM12 9C9 9 7 11 7 14C7 17 9 19 12 19C15 19 17 17 17 14C17 11 15 9 12 9ZM82 79V97.9999H69V19H82V26L89 19H109C117 19 123 25 123 33V65C123 73 116 79 109 79C104 79 90 79 82 79ZM82 64C88 65 96 65 107 65C108 65 109 64 109 63V36C109 34 108 33 107 33H82V64ZM246 33V79H232V36C232 34 231 33 229 33H208V79H195V19H208V26L215 19H232C240 19 246 25 246 33ZM270 65H296C299 65 301 63 301 60V53C301 50 299 48 296 48H277C267 48 258 40 258 30V23C258 13 267 5 277 5H308V19L297 23V19H277C274 19 272 21 272 24V29C272 32 274 35 277 35H296C306 35 315 43 315 53V60C315 71 306 79 296 79H258V60H270V65ZM362 19C370 19 376 25 376 33V65C376 73 370 79 362 79H335C328 79 322 73 322 65V33C322 25 328 19 335 19H362ZM362 63V36C362 34 361 33 360 33H338C336 33 335 34 335 36V63C335 64 336 65 338 65H360C361 65 362 64 362 63ZM423 19H437V65C437 73 431 79 423 79H399C392 79 386 73 386 65V19H399V63C399 64 400 65 402 65H420C422 65 423 64 423 63V19ZM479 19L475 33H463C461 33 460 34 460 36V79H446V19H460V26L467 19H479ZM514 33H499C497 33 496 34 496 36V63C496 64 497 65 499 65H528V79H496C489 79 483 73 483 65V33C483 25 489 19 496 19H526V37H514V33ZM547 56V63C547 64 549 65 550 65H587L583 79H547C540 79 534 73 534 65V33C534 25 540 19 547 19H573C581 19 587 25 587 33V56H547ZM547 42H573V36C573 34 572 33 571 33H550C549 33 547 34 547 36V42ZM145 56V63C145 64 146 65 148 65H185L181 79H145C138 79 132 73 132 65V33C132 25 138 19 145 19H171C179 19 185 25 185 33V56H145ZM145 42H171V36C171 34 170 33 169 33H148C146 33 145 34 145 36V42ZM601 79V4H614V60C614 66 613 65 619 65H640V79H619H601ZM685 19C692 19 698 25 698 33V65C698 73 692 79 685 79H658C650 79 644 73 644 65V33C644 25 650 19 658 19H685ZM685 63V36C685 34 684 33 682 33H661C659 33 658 34 658 36V63C658 64 659 65 661 65H682C684 65 685 64 685 63ZM722 22H749C756 22 762 28 762 36V65C762 73 756 79 749 79H728L722 72V79H708V2H722V22ZM724 36C723 36 722 37 722 38V62C722 62 728 65 746 65C747 65 749 64 749 63V39C749 37 748 36 746 36H724ZM785 22H813C820 22 826 28 826 36V65C826 73 820 79 813 79H792L785 72V79H772V2H785V22ZM788 36C787 36 787 36 786 37L785 38V62C785 62 793 65 810 65C811 65 813 64 813 63V39C813 37 811 36 810 36H788ZM862 102H813L820 88H853L856 79H850L832 19H846L860 66L874 19H888L862 102Z" fill="#1A1A1A"/>
</svg>
