<?xml version="1.0" encoding="UTF-8" standalone="no"?><!DOCTYPE svg PUBLIC "-//W3C//DTD SVG 1.1//EN" "http://www.w3.org/Graphics/SVG/1.1/DTD/svg11.dtd"><svg width="100px" height="100px" version="1.1" xmlns="http://www.w3.org/2000/svg" xmlns:xlink="http://www.w3.org/1999/xlink" xml:space="preserve" xmlns:serif="http://www.serif.com/" style="fill-rule:evenodd;clip-rule:evenodd;stroke-linejoin:round;stroke-miterlimit:2;"><g transform="matrix(1,0,0,1,-160,-1395.373514)"><g id="Artboard4" transform="matrix(0.09009,0,0,0.32643,145.503026,637.218072)"><rect x="161" y="2323" width="1110" height="306" style="fill:none;"/><g transform="matrix(11.100027,0,0,3.063447,-17712.166786,-3626.049624)"><path d="M1667,1955L1670,1955C1680,1955 1688,1964 1688,1974L1688,2010C1688,2010 1688,2011 1688,2011C1690,2014 1692,2017 1692,2020C1692,2027 1686,2032 1680,2032C1673,2032 1667,2027 1667,2020C1667,2015 1670,2011 1675,2009L1675,1974C1675,1971 1672,1969 1669,1969L1667,1969L1667,1974C1667,1975 1667,1975 1667,1975C1667,1975 1666,1975 1666,1975L1654,1963L1667,1950C1667,1950 1667,1950 1667,1950C1667,1950 1667,1950 1667,1950L1667,1955ZM1680,2015C1677,2015 1674,2017 1674,2020C1674,2023 1677,2025 1680,2025C1682,2025 1685,2023 1685,2020C1685,2017 1682,2015 1680,2015ZM1633,1973C1630,1971 1629,1968 1629,1964C1629,1957 1634,1952 1641,1952C1647,1952 1653,1957 1653,1964C1653,1969 1650,1973 1646,1975L1646,2010C1646,2013 1649,2015 1652,2015L1653,2015L1653,2009C1653,2009 1653,2009 1654,2009C1654,2009 1654,2009 1654,2009L1666,2021L1654,2034C1654,2034 1653,2034 1653,2034C1653,2034 1653,2033 1653,2033L1653,2028L1651,2028C1641,2028 1633,2020 1633,2010L1633,1974C1633,1974 1633,1973 1633,1973ZM1641,1959C1638,1959 1636,1961 1636,1964C1636,1967 1638,1969 1641,1969C1644,1969 1646,1967 1646,1964C1646,1961 1644,1959 1641,1959Z" style="fill:rgb(26,26,26);"/></g></g></g></svg>